# xmcd
#
# Track frame offsets: 
#        150
#        9472
#        23037
#        37177
#        50152
#        56032
#        67195
#        80142
#        94967
#        103680
#        115385
#        128302
#        139600
#        152407
#        155842
#        166430
#        178105
#        187627
#        201102
#        212155
#        228482
#        243472
#        255212
#        270007
#        281865
#        296470
#        309997
#        316972
#        337207
#        353680
#
# Disc length: 4841 seconds
#
# Revision: 0
# Processed by: cddbd v1.5.2PL0 Copyright (c) Steve Scherf et al.
# Submitted via: ExactAudioCopy v0.99pb4
#
DISCID=b512e71e
DTITLE=Various Artist - Let Me Be Your Sidetrack CD 4
DYEAR=2008
DGENRE=Country
TTITLE0=Webb Pierce - In The Jailhouse Now
TTITLE1=Hank Snow - I've Ranged, I've Roamed, I've Traveled
TTITLE2=Ernest Tubb - I'm Free (From The Chain Gang Now)
TTITLE3=Lefty Frizzell - Sleep, Baby, Sleep
TTITLE4=Slim Rinehart - For The Sake Of Days Gone By
TTITLE5=Jack Guthrie - Blue Yodel #3 (Evening Sun Yodel)
TTITLE6=Gary Williams - Hobo's Meditation
TTITLE7=Jimmie Skinner - Jimmie Rodgers' Last Blue Yodel
TTITLE8=Johnny Cash - The Mystery Of Number Five
TTITLE9=Bill Monroe - The Sailor's Plea
TTITLE10=Hank Snow - My Good Gal's Gone Blues
TTITLE11=Lefty Frizzell - Blue Yodel #2 (My Lovin' Gal Lucille)
TTITLE12=Wilf Carter - Cowhand's Last Ride
TTITLE13=Patsy Montana - Treasures Untold
TTITLE14=Merle Travis - Blue Yodel #1 (T For Texas)
TTITLE15=Gary Williams - Jimmie's Texas Blues
TTITLE16=Jim Reeves - Waiting For A Train
TTITLE17=Tommy Duncan - Never No' Mo' Blues
TTITLE18=Red Foley - I'm Sorry We Met
TTITLE19=Hank Snow - Ninety Nine Year Blues
TTITLE20=Lefty Frizzell - Why Should I Be Lonely
TTITLE21=Jimmie Skinner - Miss The Mississippi And You
TTITLE22=Dwight Butcher - Old Love Letters (Bring Memories Of You)
TTITLE23=Jimmy Hinchee - Rock All The Babies To Sleep
TTITLE24=Gary Williams - Gambling Bar Room Blues
TTITLE25=Ernest Tubb - The Wonderful City
TTITLE26=Slim Rinehart - Mississippi Moon
TTITLE27=Lonnie Donegan - Blue Yodel #8 (Mule Skinner Blues)
TTITLE28=Jack Elliott - Whippin' That Old T.B.
TTITLE29=Pete Seeger - Blue Yodel #1 (T For Texas)
EXTD=
EXTT0=
EXTT1=
EXTT2=
EXTT3=
EXTT4=
EXTT5=
EXTT6=
EXTT7=
EXTT8=
EXTT9=
EXTT10=
EXTT11=
EXTT12=
EXTT13=
EXTT14=
EXTT15=
EXTT16=
EXTT17=
EXTT18=
EXTT19=
EXTT20=
EXTT21=
EXTT22=
EXTT23=
EXTT24=
EXTT25=
EXTT26=
EXTT27=
EXTT28=
EXTT29=
PLAYORDER=
